<svg width="2385" height="729" viewBox="0 0 2385 729" fill="none" xmlns="http://www.w3.org/2000/svg">
<path fill-rule="evenodd" clip-rule="evenodd" d="M0.569059 123.979C1.02932 224.17 2.95406 243.538 10.7953 226.556C16.1092 215.042 23.9839 203.143 28.302 200.121C42.3359 190.265 58.5789 202.75 58.5789 223.399C58.5789 238.212 50.7963 247.289 29.2895 257.547L0 271.523V500.182V728.832L1192.5 728.916L2385 729V553.07C2385 379.132 2384.81 377.257 2368.24 387.615C2355.82 395.377 2347.68 395.704 2336.86 388.888C2302.7 367.359 2320.94 323.104 2361.51 329.066C2382.41 332.131 2385 329.962 2385 309.405C2385 293.654 2379.67 284.611 2368.26 280.985C2346.71 274.135 2346.71 246.46 2368.26 232.987C2383.64 223.383 2385 213.46 2385 111.494V0.467756H2313.87C2243.57 0.467756 2242.74 0.710592 2242.74 21.4019C2242.74 37.4709 2247.11 42.3778 2261.57 42.5202L2280.39 42.7044L2260.36 58.1203C2237.11 76.0064 2242.95 92.5778 2272.52 92.5778H2292.95V364.721V636.865L1755.28 637.828C1459.55 638.355 1211.16 638.146 1203.29 637.359C1195.41 636.572 1181.29 640.038 1171.91 645.063C1160.45 651.2 1154.84 651.351 1154.84 645.531C1154.84 639.812 1089.47 636.865 962.368 636.865C775.476 636.865 769.895 637.35 769.895 653.612C769.895 676.48 736.438 676.413 730.454 653.528C726.178 637.175 719.584 636.714 493.921 637.141L261.781 637.577L252.115 658.812C240.801 683.665 220.859 680.826 223.755 654.784C225.646 637.803 222.249 636.865 158.9 636.865H92.0526V574.757C92.0526 533.266 88.5797 511.034 81.5921 507.768C73.2237 503.866 73.2237 501.907 81.5921 498.005C88.0107 495.007 92.0526 476.124 92.0526 449.103C92.0526 410.282 89.5839 403.969 71.1316 395.553C42.2103 382.365 42.4697 346.952 71.5835 333.68C92.6635 324.076 92.9481 322.711 91.7765 235.474C91.1238 186.815 90.9145 134.756 91.3162 119.792L92.0526 92.5778H154.657C214.458 92.5778 217.495 91.64 222.508 71.6437C227.981 49.8304 237.989 44.7057 246.902 59.1419C249.772 63.7809 246.224 69.835 239.027 72.5983C199.135 87.9137 255.53 91.5563 539.094 91.9498C780.255 92.2848 853.361 90.0071 857.094 82.0187C860.918 73.846 862.968 73.8292 866.768 81.9265C870.508 89.915 1008.3 92.2513 1483.98 92.4104L2096.37 92.6113L2115.16 51.6307C2125.5 29.0972 2133.95 8.36412 2133.95 5.55895C2133.95 -4.09586 1543.76 -0.151879 1534.04 9.56992C1527.49 16.1265 1523.37 16.1265 1519.32 9.56992C1515.47 3.33993 1434.54 0.467756 1263.14 0.467756C1045.99 0.467756 1012.58 2.14249 1012.58 13.0282C1012.58 19.9365 1008.81 25.5887 1004.21 25.5887C999.608 25.5887 995.842 19.9365 995.842 13.0282C995.842 2.0755 953.146 0.467756 661.8 0.467756C402.195 0.467756 326.912 2.804 323.925 10.9348C320.862 19.3085 317.874 19.3085 309.004 10.9348C300.987 3.36504 256.634 0.467756 148.958 0.467756H0L0.569059 123.979ZM1132.98 217.563C1123.27 221.741 1107.26 235.407 1097.42 247.926C1081.24 268.508 1079.53 281.035 1079.53 378.831C1079.53 530.059 1093.24 553.128 1183.11 553.128C1219.79 553.128 1234.02 548.992 1252.7 532.923L1276.18 512.709V386.568C1276.18 261.156 1276.06 260.302 1253.92 238.145C1229.66 213.878 1166.54 203.127 1132.98 217.563ZM1384.04 217.571C1355.78 229.713 1330.58 268.022 1330.58 298.863C1330.58 326.68 1331.06 327.04 1368.24 327.04C1402.31 327.04 1405.89 325.147 1405.89 307.127C1405.89 281.337 1424.25 265.016 1437.9 278.674C1448.83 289.618 1450.85 325.96 1441.33 340.848C1437.95 346.14 1425.77 351.792 1414.26 353.409C1398.94 355.561 1392.66 362.151 1390.82 378.044C1388.71 396.273 1392.71 400.996 1415.93 407.619C1440.93 414.754 1443.8 418.857 1446.13 450.894C1448.09 477.749 1445.35 487.579 1434.82 491.624C1418.66 497.829 1406.2 481.894 1406.02 454.738C1405.91 437.999 1401.68 435.897 1368.14 435.897H1330.38L1335.65 471.485C1342.87 520.237 1358.03 541.464 1394.12 553.388C1432.81 566.166 1483.97 552.726 1502.11 525.026C1523.55 492.285 1526.26 435.772 1508.06 400.904C1493.3 372.609 1493.09 368.992 1505.43 356.641C1514.14 347.915 1518.87 328.639 1518.87 301.81C1518.87 268.282 1514.69 256.249 1496.84 238.388C1472.83 214.356 1415.95 203.855 1384.04 217.571ZM376.579 276.798C376.579 319.512 379.55 335.414 387.533 335.414C393.558 335.414 405.651 340.655 414.413 347.07C427.944 356.967 428.664 360.744 419.174 372.191C413.032 379.593 400.931 385.655 392.295 385.655C377.968 385.655 376.579 393.058 376.579 469.392V553.128H418.421H460.263V414.963V276.798H481.184C502.097 276.798 502.105 276.823 502.105 360.116C502.105 427.272 504.666 444.874 515.302 450.827C525.411 456.488 527.144 465.406 522.717 489.02C519.545 505.96 513.603 521.886 509.528 524.407C505.444 526.927 502.105 534.422 502.105 541.062C502.105 549.963 513.093 553.128 543.947 553.128H585.789V385.655V218.182H481.184H376.579V276.798ZM644.368 385.655V553.128H682.026H719.684V385.655V218.182H682.026H644.368V385.655ZM830.457 322.518C820.733 432.23 805.101 481.802 777.46 490.586C763.677 494.957 761.526 504.05 761.526 557.876V620.117H790.816C819.411 620.117 820.105 619.322 820.105 586.623C820.105 554.309 821.084 553.128 847.721 553.128C862.91 553.128 879.429 549.034 884.433 544.026C890.986 537.47 895.103 537.47 899.153 544.026C902.25 549.034 921.497 553.128 941.941 553.128H979.105V586.623C979.105 619.322 979.8 620.117 1008.39 620.117H1037.68V557.315C1037.68 495.911 1037.22 494.513 1016.76 494.513H995.842L994.855 362.628C994.302 290.095 994.302 227.913 994.855 224.463C995.399 221.013 960.711 218.182 917.773 218.182H839.704L830.457 322.518ZM1573.26 385.655V553.128H1615.11H1656.95V481.952V410.776H1690.42C1721.85 410.776 1723.89 409.277 1723.89 386.25C1723.89 360.367 1742.43 335.414 1761.65 335.414C1780.3 335.414 1783.8 321.17 1774.04 284.92C1758.2 226.054 1743.9 218.182 1652.76 218.182H1573.26V385.655ZM1866.16 221.574C1866.16 223.441 1852.98 294.609 1836.87 379.718C1820.76 464.828 1807.58 538.659 1807.58 543.792C1807.58 548.925 1818.88 553.128 1832.68 553.128C1849.42 553.128 1857.79 548.941 1857.79 540.568C1857.79 533.66 1863.03 528.007 1869.44 528.007C1875.84 528.007 1883.45 518.587 1886.33 507.073C1890.09 492.101 1897.24 486.139 1911.45 486.139C1932.58 486.139 1941.47 499.989 1941.47 532.881C1941.47 551.294 1944.88 553.128 1979.13 553.128C1999.84 553.128 2016.79 550.298 2016.79 546.848C2016.79 543.398 2010.73 510.423 2003.32 473.579C1995.92 436.735 1988.22 397.169 1986.22 385.655C1984.21 374.142 1976.62 331.754 1969.35 291.452L1956.14 218.182H1911.15C1886.4 218.182 1866.16 219.706 1866.16 221.574ZM1196.39 284.619C1205.66 301.944 1208.18 444.304 1199.78 475.672C1193.97 497.343 1167.51 501.061 1159.92 481.266C1157.13 473.981 1154.84 430.404 1154.84 384.416C1154.84 304.925 1162.74 268.424 1179.95 268.424C1184.22 268.424 1191.62 275.709 1196.39 284.619ZM922.066 358.441C923.522 403.341 923.53 452.335 922.091 467.298C919.639 492.721 917.397 494.513 887.923 494.513C861.521 494.513 856.575 491.775 857.612 477.732C858.29 468.496 865.805 455.852 874.308 449.63C883.596 442.839 887.705 432.925 884.592 424.819C881.747 417.392 883.019 409.085 887.421 406.363C891.823 403.642 895.471 381.854 895.538 357.947C895.823 249.827 918.551 250.245 922.066 358.441ZM1701.76 295.89C1708.23 321.664 1699.43 352.161 1685.53 352.161C1678.91 352.161 1676.21 357.369 1679.02 364.721C1681.68 371.63 1680.11 377.282 1675.56 377.282C1664.96 377.282 1657.21 348.309 1657.06 308.199C1656.96 280.633 1659.39 276.798 1676.96 276.798C1690.81 276.798 1698.45 282.676 1701.76 295.89ZM1245.41 313.081C1247.24 322.493 1242.47 327.04 1230.77 327.04C1221.23 327.04 1213.42 322.016 1213.42 315.878C1213.42 290.229 1240.53 287.86 1245.41 313.081ZM1920.11 387.749C1925.21 429.801 1924.13 435.897 1911.69 435.897C1899.88 435.897 1898.33 430.521 1902.63 404.496C1905.48 387.23 1907.86 363.984 1907.91 352.856C1908.06 319.679 1913.87 336.318 1920.11 387.749ZM37.6579 394.029C40.5032 398.635 38.8378 402.403 33.9674 402.403C29.097 402.403 25.1053 398.635 25.1053 394.029C25.1053 389.424 26.7622 385.655 28.7958 385.655C30.8293 385.655 34.8126 389.424 37.6579 394.029ZM41.8421 603.37C41.8421 607.976 38.0763 611.744 33.4737 611.744C28.8711 611.744 25.1053 607.976 25.1053 603.37C25.1053 598.765 28.8711 594.996 33.4737 594.996C38.0763 594.996 41.8421 598.765 41.8421 603.37Z" fill="#FF0000"/>
</svg>
